{
    "asset" : {
        "generator" : "Khronos glTF Blender I/O v1.6.16",
        "version" : "2.0"
    },
    "scene" : 0,
    "scenes" : [
        {
            "name" : "Scene",
            "nodes" : [
                0,
                1
            ]
        }
    ],
    "nodes" : [
        {
            "name" : "Spot",
            "rotation" : [
                0.07913412153720856,
                -0.1309601068496704,
                -0.34353113174438477,
                0.9265925884246826
            ],
            "translation" : [
                1.7254884243011475,
                1.929793357849121,
                0.8042821884155273
            ]
        },
        {
            "mesh" : 0,
            "name" : "Sphere.001"
        }
    ],
    "meshes" : [
        {
            "name" : "Sphere.001",
            "primitives" : [
                {
                    "attributes" : {
                        "POSITION" : 0,
                        "NORMAL" : 1,
                        "TEXCOORD_0" : 2
                    },
                    "indices" : 3
                }
            ]
        }
    ],
    "accessors" : [
        {
            "bufferView" : 0,
            "componentType" : 5126,
            "count" : 9397,
            "max" : [
                0.6314261555671692,
                0.6380419135093689,
                0.6314260959625244
            ],
            "min" : [
                -0.6314259767532349,
                -0.6380419135093689,
                -0.6314260959625244
            ],
            "type" : "VEC3"
        },
        {
            "bufferView" : 1,
            "componentType" : 5126,
            "count" : 9397,
            "type" : "VEC3"
        },
        {
            "bufferView" : 2,
            "componentType" : 5126,
            "count" : 9397,
            "type" : "VEC2"
        },
        {
            "bufferView" : 3,
            "componentType" : 5123,
            "count" : 47616,
            "type" : "SCALAR"
        }
    ],
    "bufferViews" : [
        {
            "buffer" : 0,
            "byteLength" : 112764,
            "byteOffset" : 0
        },
        {
            "buffer" : 0,
            "byteLength" : 112764,
            "byteOffset" : 112764
        },
        {
            "buffer" : 0,
            "byteLength" : 75176,
            "byteOffset" : 225528
        },
        {
            "buffer" : 0,
            "byteLength" : 95232,
            "byteOffset" : 300704
        }
    ],
    "buffers" : [
        {
            "byteLength" : 395936,
            "uri" : "data:application/octet-stream;base64,"
        }
    ]
}
