{
    "asset" : {
        "generator" : "Khronos glTF Blender I/O v1.6.16",
        "version" : "2.0"
    },
    "scene" : 0,
    "scenes" : [
        {
            "name" : "Scene",
            "nodes" : [
                0,
                2,
                3,
                4
            ]
        }
    ],
    "nodes" : [
        {
            "mesh" : 0,
            "name" : "Sphere.002"
        },
        {
            "name" : "Spot_Orientation"
        },
        {
            "children" : [
                1
            ],
            "name" : "Spot",
            "rotation" : [
                0.07913412153720856,
                -0.1309601068496704,
                -0.34353113174438477,
                0.9265925884246826
            ],
            "translation" : [
                1.7254884243011475,
                1.929793357849121,
                0.8042821884155273
            ]
        },
        {
            "name" : "Light",
            "rotation" : [
                0.16907575726509094,
                0.7558803558349609,
                -0.27217137813568115,
                0.570947527885437
            ],
            "translation" : [
                4.076245307922363,
                5.903861999511719,
                -1.0054539442062378
            ]
        },
        {
            "name" : "Camera",
            "rotation" : [
                0.483536034822464,
                0.33687159419059753,
                -0.20870360732078552,
                0.7804827094078064
            ],
            "translation" : [
                7.358891487121582,
                4.958309173583984,
                6.925790786743164
            ]
        }
    ],
    "materials" : [
        {
            "doubleSided" : true,
            "name" : "Material.001",
            "pbrMetallicRoughness" : {
                "baseColorTexture" : {
                    "index" : 0
                },
                "metallicFactor" : 0,
                "roughnessFactor" : 0.5
            }
        }
    ],
    "meshes" : [
        {
            "name" : "Sphere.003",
            "primitives" : [
                {
                    "attributes" : {
                        "POSITION" : 0,
                        "NORMAL" : 1,
                        "TEXCOORD_0" : 2
                    },
                    "indices" : 3,
                    "material" : 0
                }
            ]
        }
    ],
    "textures" : [
        {
            "sampler" : 0,
            "source" : 0
        }
    ],
    "images" : [
        {
            "bufferView" : 4,
            "mimeType" : "image/png",
            "name" : "TestWatermarkBottom"
        }
    ],
    "accessors" : [
        {
            "bufferView" : 0,
            "componentType" : 5126,
            "count" : 2549,
            "max" : [
                0.6314261555671692,
                0.6380419135093689,
                0.6314260959625244
            ],
            "min" : [
                -0.6314259767532349,
                -0.6380419135093689,
                -0.6314260959625244
            ],
            "type" : "VEC3"
        },
        {
            "bufferView" : 1,
            "componentType" : 5126,
            "count" : 2549,
            "type" : "VEC3"
        },
        {
            "bufferView" : 2,
            "componentType" : 5126,
            "count" : 2549,
            "type" : "VEC2"
        },
        {
            "bufferView" : 3,
            "componentType" : 5123,
            "count" : 11904,
            "type" : "SCALAR"
        }
    ],
    "bufferViews" : [
        {
            "buffer" : 0,
            "byteLength" : 30588,
            "byteOffset" : 0
        },
        {
            "buffer" : 0,
            "byteLength" : 30588,
            "byteOffset" : 30588
        },
        {
            "buffer" : 0,
            "byteLength" : 20392,
            "byteOffset" : 61176
        },
        {
            "buffer" : 0,
            "byteLength" : 23808,
            "byteOffset" : 81568
        },
        {
            "buffer" : 0,
            "byteLength" : 1769841,
            "byteOffset" : 105376
        }
    ],
    "samplers" : [
        {
            "magFilter" : 9729,
            "minFilter" : 9987
        }
    ],
    "buffers" : [
        {
            "byteLength" : 1875220,
            "uri" : "data:application/octet-stream;base64,"
        }
    ]
}
