{
    "asset" : {
        "generator" : "Khronos glTF Blender I/O v1.6.16",
        "version" : "2.0"
    },
    "scene" : 4,
    "scenes" : [
        {
            "name" : "Context",
            "nodes" : [
                0,
                1,
                2,
                3
            ]
        },
        {
            "name" : "Cube",
            "nodes" : [
                4,
                5,
                6,
                7,
                8
            ]
        },
        {
            "name" : "Cylinder",
            "nodes" : [
                9,
                10,
                11,
                12
            ]
        },
        {
            "name" : "FlatSphere",
            "nodes" : [
                13,
                14,
                15,
                16
            ]
        },
        {
            "name" : "Sphere",
            "nodes" : [
                17,
                18,
                19,
                20
            ]
        },
        {
            "name" : "SphereMacro",
            "nodes" : [
                21,
                22,
                23,
                24
            ]
        }
    ],
    "nodes" : [
        {
            "name" : "Camera.005",
            "rotation" : [
                0.7071068286895752,
                0,
                0,
                0.7071068286895752
            ],
            "translation" : [
                0,
                0.6219690442085266,
                3.8438711166381836
            ]
        },
        {
            "mesh" : 0,
            "name" : "Sphere_Totem.001",
            "translation" : [
                0,
                0.6219690442085266,
                0
            ]
        },
        {
            "name" : "Spot.011",
            "rotation" : [
                0.12811490893363953,
                -0.04365656524896622,
                -0.32307496666908264,
                0.9366446733474731
            ],
            "translation" : [
                1.8281285762786865,
                2.7292370796203613,
                1.2116355895996094
            ]
        },
        {
            "mesh" : 1,
            "name" : "Plane",
            "scale" : [
                5,
                5,
                5
            ]
        },
        {
            "name" : "Camera.002",
            "rotation" : [
                0.7071068286895752,
                0,
                0,
                0.7071068286895752
            ],
            "translation" : [
                0,
                0,
                2.176953077316284
            ]
        },
        {
            "name" : "Spot.005",
            "rotation" : [
                0.12811490893363953,
                -0.04365656524896622,
                -0.32307496666908264,
                0.9366446733474731
            ],
            "translation" : [
                1.91092050075531,
                2.02150821685791,
                0.893915057182312
            ]
        },
        {
            "name" : "Spot.004",
            "rotation" : [
                -0.10194355249404907,
                -0.19997818768024445,
                0.7778207063674927,
                0.5870361328125
            ],
            "translation" : [
                -2.801386833190918,
                -1.268904447555542,
                -1.5537304878234863
            ]
        },
        {
            "mesh" : 2,
            "name" : "RoundedCube_Totem",
            "rotation" : [
                0,
                0.18863575160503387,
                0,
                0.9820471405982971
            ],
            "translation" : [
                -0.06543835252523422,
                0,
                0
            ]
        },
        {
            "mesh" : 3,
            "name" : "RoundedCube_Tot.001",
            "rotation" : [
                0,
                0.18863575160503387,
                0,
                0.9820471405982971
            ],
            "translation" : [
                3.9345617294311523,
                0,
                0
            ]
        },
        {
            "mesh" : 4,
            "name" : "Cylinder_Totem"
        },
        {
            "name" : "Camera.001",
            "rotation" : [
                0.7071068286895752,
                0,
                0,
                0.7071068286895752
            ],
            "translation" : [
                0,
                0,
                2.450768232345581
            ]
        },
        {
            "name" : "Spot.003",
            "rotation" : [
                0.2135522961616516,
                -0.1586509346961975,
                -0.31737038493156433,
                0.9102206230163574
            ],
            "translation" : [
                1.7161989212036133,
                2.159576892852783,
                1.8224395513534546
            ]
        },
        {
            "name" : "Spot.002",
            "rotation" : [
                -0.10194355249404907,
                -0.19997818768024445,
                0.7778207063674927,
                0.5870361328125
            ],
            "translation" : [
                -2.801386833190918,
                -1.268904447555542,
                -1.5537304878234863
            ]
        },
        {
            "name" : "Camera.004",
            "rotation" : [
                0.7071068286895752,
                0,
                0,
                0.7071068286895752
            ],
            "translation" : [
                0,
                0,
                3.5397164821624756
            ]
        },
        {
            "mesh" : 5,
            "name" : "FlatSphere_Totem"
        },
        {
            "name" : "Spot.009",
            "rotation" : [
                0.12811490893363953,
                -0.04365656524896622,
                -0.32307496666908264,
                0.9366446733474731
            ],
            "translation" : [
                1.8928004503250122,
                2.412363052368164,
                1.6545233726501465
            ]
        },
        {
            "name" : "Spot.008",
            "rotation" : [
                -0.057914502918720245,
                -0.0784202516078949,
                0.7990788817405701,
                0.5932700634002686
            ],
            "translation" : [
                -5.845250606536865,
                -3.371641159057617,
                0.6975569725036621
            ]
        },
        {
            "mesh" : 6,
            "name" : "Sphere_Totem"
        },
        {
            "name" : "Camera",
            "rotation" : [
                0.7071068286895752,
                0,
                0,
                0.7071068286895752
            ],
            "translation" : [
                0,
                0,
                2.176953077316284
            ]
        },
        {
            "name" : "Spot",
            "rotation" : [
                0.12811490893363953,
                -0.04365656524896622,
                -0.32307496666908264,
                0.9366446733474731
            ],
            "translation" : [
                1.8281285762786865,
                2.1072678565979004,
                1.2116355895996094
            ]
        },
        {
            "name" : "Spot.001",
            "rotation" : [
                -0.10194355249404907,
                -0.19997818768024445,
                0.7778207063674927,
                0.5870361328125
            ],
            "translation" : [
                -2.801386833190918,
                -1.268904447555542,
                -1.5537304878234863
            ]
        },
        {
            "name" : "Camera.003",
            "rotation" : [
                0.7071068286895752,
                0,
                0,
                0.7071068286895752
            ],
            "translation" : [
                0.296202152967453,
                0.22112365067005157,
                2.176953077316284
            ]
        },
        {
            "mesh" : 7,
            "name" : "SphereMacro_Totem"
        },
        {
            "name" : "Spot.007",
            "rotation" : [
                0.0022461898624897003,
                0.2989491820335388,
                -0.34754252433776855,
                0.8887286186218262
            ],
            "translation" : [
                2.1662824153900146,
                2.1072678565979004,
                -0.3425430357456207
            ]
        },
        {
            "name" : "Spot.006",
            "rotation" : [
                -0.10194355249404907,
                -0.19997818768024445,
                0.7778207063674927,
                0.5870361328125
            ],
            "translation" : [
                -2.801386833190918,
                -1.268904447555542,
                -1.5537304878234863
            ]
        }
    ],
    "materials" : [
        {
            "doubleSided" : true,
            "name" : "Standard_Material",
            "normalTexture" : {
                "index" : 0
            },
            "pbrMetallicRoughness" : {
                "baseColorTexture" : {
                    "index" : 1
                },
                "metallicRoughnessTexture" : {
                    "index" : 2
                }
            }
        }
    ],
    "meshes" : [
        {
            "name" : "Sphere.003",
            "primitives" : [
                {
                    "attributes" : {
                        "POSITION" : 0,
                        "NORMAL" : 1,
                        "TEXCOORD_0" : 2
                    },
                    "indices" : 3,
                    "material" : 0
                }
            ]
        },
        {
            "name" : "Plane",
            "primitives" : [
                {
                    "attributes" : {
                        "POSITION" : 4,
                        "NORMAL" : 5,
                        "TEXCOORD_0" : 6
                    },
                    "indices" : 7
                }
            ]
        },
        {
            "name" : "Cube",
            "primitives" : [
                {
                    "attributes" : {
                        "POSITION" : 8,
                        "NORMAL" : 9,
                        "TEXCOORD_0" : 10
                    },
                    "indices" : 11,
                    "material" : 0
                }
            ]
        },
        {
            "name" : "Cube.002",
            "primitives" : [
                {
                    "attributes" : {
                        "POSITION" : 12,
                        "NORMAL" : 13,
                        "TEXCOORD_0" : 14
                    },
                    "indices" : 15,
                    "material" : 0
                }
            ]
        },
        {
            "name" : "Cylinder.004",
            "primitives" : [
                {
                    "attributes" : {
                        "POSITION" : 16,
                        "NORMAL" : 17,
                        "TEXCOORD_0" : 18
                    },
                    "indices" : 19,
                    "material" : 0
                }
            ]
        },
        {
            "name" : "Sphere.002",
            "primitives" : [
                {
                    "attributes" : {
                        "POSITION" : 20,
                        "NORMAL" : 21,
                        "TEXCOORD_0" : 22
                    },
                    "indices" : 23,
                    "material" : 0
                }
            ]
        },
        {
            "name" : "Sphere",
            "primitives" : [
                {
                    "attributes" : {
                        "POSITION" : 24,
                        "NORMAL" : 25,
                        "TEXCOORD_0" : 26
                    },
                    "indices" : 3,
                    "material" : 0
                }
            ]
        },
        {
            "name" : "Sphere.001",
            "primitives" : [
                {
                    "attributes" : {
                        "POSITION" : 27,
                        "NORMAL" : 28,
                        "TEXCOORD_0" : 29
                    },
                    "indices" : 3,
                    "material" : 0
                }
            ]
        }
    ],
    "textures" : [
        {
            "sampler" : 0,
            "source" : 0
        },
        {
            "sampler" : 0,
            "source" : 1
        },
        {
            "sampler" : 0,
            "source" : 2
        }
    ],
    "images" : [
        {
            "mimeType" : "image/png",
            "name" : "GrainyPolishedConcrete_normal",
            "uri" : "GrainyPolishedConcrete_normal.png"
        },
        {
            "mimeType" : "image/png",
            "name" : "GrainyPolishedConcrete_basecolor",
            "uri" : "GrainyPolishedConcrete_basecolor.png"
        },
        {
            "mimeType" : "image/png",
            "name" : "GrainyPolishedConcrete_metallic-GrainyPolishedConcrete_roughness",
            "uri" : "GrainyPolishedConcrete_metallic-GrainyPolishedConcrete_roughness.png"
        }
    ],
    "accessors" : [
        {
            "bufferView" : 0,
            "componentType" : 5126,
            "count" : 321,
            "max" : [
                0.6369994282722473,
                0.6370000243186951,
                0.6369999051094055
            ],
            "min" : [
                -0.636999785900116,
                -0.6370000243186951,
                -0.12427257746458054
            ],
            "type" : "VEC3"
        },
        {
            "bufferView" : 1,
            "componentType" : 5126,
            "count" : 321,
            "type" : "VEC3"
        },
        {
            "bufferView" : 2,
            "componentType" : 5126,
            "count" : 321,
            "type" : "VEC2"
        },
        {
            "bufferView" : 3,
            "componentType" : 5123,
            "count" : 1620,
            "type" : "SCALAR"
        },
        {
            "bufferView" : 4,
            "componentType" : 5126,
            "count" : 4,
            "max" : [
                3,
                0,
                3
            ],
            "min" : [
                -3,
                0,
                -3
            ],
            "type" : "VEC3"
        },
        {
            "bufferView" : 5,
            "componentType" : 5126,
            "count" : 4,
            "type" : "VEC3"
        },
        {
            "bufferView" : 6,
            "componentType" : 5126,
            "count" : 4,
            "type" : "VEC2"
        },
        {
            "bufferView" : 7,
            "componentType" : 5123,
            "count" : 6,
            "type" : "SCALAR"
        },
        {
            "bufferView" : 8,
            "componentType" : 5126,
            "count" : 143,
            "max" : [
                0.5,
                0.5,
                0.5
            ],
            "min" : [
                -0.5,
                -0.5,
                -0.5
            ],
            "type" : "VEC3"
        },
        {
            "bufferView" : 9,
            "componentType" : 5126,
            "count" : 143,
            "type" : "VEC3"
        },
        {
            "bufferView" : 10,
            "componentType" : 5126,
            "count" : 143,
            "type" : "VEC2"
        },
        {
            "bufferView" : 11,
            "componentType" : 5123,
            "count" : 648,
            "type" : "SCALAR"
        },
        {
            "bufferView" : 12,
            "componentType" : 5126,
            "count" : 14,
            "max" : [
                0.5,
                0.5,
                0.5
            ],
            "min" : [
                -0.5,
                -0.5,
                -0.5
            ],
            "type" : "VEC3"
        },
        {
            "bufferView" : 13,
            "componentType" : 5126,
            "count" : 14,
            "type" : "VEC3"
        },
        {
            "bufferView" : 14,
            "componentType" : 5126,
            "count" : 14,
            "type" : "VEC2"
        },
        {
            "bufferView" : 15,
            "componentType" : 5123,
            "count" : 36,
            "type" : "SCALAR"
        },
        {
            "bufferView" : 16,
            "componentType" : 5126,
            "count" : 475,
            "max" : [
                0.5,
                0.6000000238418579,
                0.5
            ],
            "min" : [
                -0.5,
                -0.6000000238418579,
                -0.09754520654678345
            ],
            "type" : "VEC3"
        },
        {
            "bufferView" : 17,
            "componentType" : 5126,
            "count" : 475,
            "type" : "VEC3"
        },
        {
            "bufferView" : 18,
            "componentType" : 5126,
            "count" : 475,
            "type" : "VEC2"
        },
        {
            "bufferView" : 19,
            "componentType" : 5123,
            "count" : 2376,
            "type" : "SCALAR"
        },
        {
            "bufferView" : 20,
            "componentType" : 5126,
            "count" : 63,
            "max" : [
                1.3512808084487915,
                1.0616947412490845,
                0.814368724822998
            ],
            "min" : [
                -1.351280927658081,
                -1.061694622039795,
                0.4787980020046234
            ],
            "type" : "VEC3"
        },
        {
            "bufferView" : 21,
            "componentType" : 5126,
            "count" : 63,
            "type" : "VEC3"
        },
        {
            "bufferView" : 22,
            "componentType" : 5126,
            "count" : 63,
            "type" : "VEC2"
        },
        {
            "bufferView" : 23,
            "componentType" : 5123,
            "count" : 288,
            "type" : "SCALAR"
        },
        {
            "bufferView" : 24,
            "componentType" : 5126,
            "count" : 321,
            "max" : [
                0.6369994282722473,
                0.6370000243186951,
                0.6369999051094055
            ],
            "min" : [
                -0.636999785900116,
                -0.6370000243186951,
                -0.12427257746458054
            ],
            "type" : "VEC3"
        },
        {
            "bufferView" : 25,
            "componentType" : 5126,
            "count" : 321,
            "type" : "VEC3"
        },
        {
            "bufferView" : 26,
            "componentType" : 5126,
            "count" : 321,
            "type" : "VEC2"
        },
        {
            "bufferView" : 27,
            "componentType" : 5126,
            "count" : 321,
            "max" : [
                0.6369994282722473,
                0.6370000243186951,
                0.6369999051094055
            ],
            "min" : [
                -0.636999785900116,
                -0.6370000243186951,
                -0.12427257746458054
            ],
            "type" : "VEC3"
        },
        {
            "bufferView" : 28,
            "componentType" : 5126,
            "count" : 321,
            "type" : "VEC3"
        },
        {
            "bufferView" : 29,
            "componentType" : 5126,
            "count" : 321,
            "type" : "VEC2"
        }
    ],
    "bufferViews" : [
        {
            "buffer" : 0,
            "byteLength" : 3852,
            "byteOffset" : 0
        },
        {
            "buffer" : 0,
            "byteLength" : 3852,
            "byteOffset" : 3852
        },
        {
            "buffer" : 0,
            "byteLength" : 2568,
            "byteOffset" : 7704
        },
        {
            "buffer" : 0,
            "byteLength" : 3240,
            "byteOffset" : 10272
        },
        {
            "buffer" : 0,
            "byteLength" : 48,
            "byteOffset" : 13512
        },
        {
            "buffer" : 0,
            "byteLength" : 48,
            "byteOffset" : 13560
        },
        {
            "buffer" : 0,
            "byteLength" : 32,
            "byteOffset" : 13608
        },
        {
            "buffer" : 0,
            "byteLength" : 12,
            "byteOffset" : 13640
        },
        {
            "buffer" : 0,
            "byteLength" : 1716,
            "byteOffset" : 13652
        },
        {
            "buffer" : 0,
            "byteLength" : 1716,
            "byteOffset" : 15368
        },
        {
            "buffer" : 0,
            "byteLength" : 1144,
            "byteOffset" : 17084
        },
        {
            "buffer" : 0,
            "byteLength" : 1296,
            "byteOffset" : 18228
        },
        {
            "buffer" : 0,
            "byteLength" : 168,
            "byteOffset" : 19524
        },
        {
            "buffer" : 0,
            "byteLength" : 168,
            "byteOffset" : 19692
        },
        {
            "buffer" : 0,
            "byteLength" : 112,
            "byteOffset" : 19860
        },
        {
            "buffer" : 0,
            "byteLength" : 72,
            "byteOffset" : 19972
        },
        {
            "buffer" : 0,
            "byteLength" : 5700,
            "byteOffset" : 20044
        },
        {
            "buffer" : 0,
            "byteLength" : 5700,
            "byteOffset" : 25744
        },
        {
            "buffer" : 0,
            "byteLength" : 3800,
            "byteOffset" : 31444
        },
        {
            "buffer" : 0,
            "byteLength" : 4752,
            "byteOffset" : 35244
        },
        {
            "buffer" : 0,
            "byteLength" : 756,
            "byteOffset" : 39996
        },
        {
            "buffer" : 0,
            "byteLength" : 756,
            "byteOffset" : 40752
        },
        {
            "buffer" : 0,
            "byteLength" : 504,
            "byteOffset" : 41508
        },
        {
            "buffer" : 0,
            "byteLength" : 576,
            "byteOffset" : 42012
        },
        {
            "buffer" : 0,
            "byteLength" : 3852,
            "byteOffset" : 42588
        },
        {
            "buffer" : 0,
            "byteLength" : 3852,
            "byteOffset" : 46440
        },
        {
            "buffer" : 0,
            "byteLength" : 2568,
            "byteOffset" : 50292
        },
        {
            "buffer" : 0,
            "byteLength" : 3852,
            "byteOffset" : 52860
        },
        {
            "buffer" : 0,
            "byteLength" : 3852,
            "byteOffset" : 56712
        },
        {
            "buffer" : 0,
            "byteLength" : 2568,
            "byteOffset" : 60564
        }
    ],
    "samplers" : [
        {
            "magFilter" : 9729,
            "minFilter" : 9987
        }
    ],
    "buffers" : [
        {
            "byteLength" : 63132,
            "uri" : "Render.bin"
        }
    ]
}
